<svg width="24" height="25" viewBox="0 0 24 25" fill="none" xmlns="http://www.w3.org/2000/svg">
<path fill-rule="evenodd" clip-rule="evenodd" d="M19.792 6.13065C20.6521 6.36171 21.3325 7.04208 21.5635 7.90215C21.9872 9.46826 22 12.716 22 12.716C22 12.716 22 15.9766 21.5764 17.5299C21.3453 18.39 20.665 19.0703 19.8049 19.3014C18.2516 19.725 12 19.725 12 19.725C12 19.725 5.74839 19.725 4.19512 19.3014C3.33504 19.0703 2.65469 18.39 2.42362 17.5299C2 15.9638 2 12.716 2 12.716C2 12.716 2 9.46826 2.41078 7.91499C2.64185 7.05491 3.32221 6.37456 4.18229 6.14349C5.73556 5.71987 11.9872 5.70703 11.9872 5.70703C11.9872 5.70703 18.2388 5.70703 19.792 6.13065ZM15.1836 12.716L9.99743 15.7199V9.71217L15.1836 12.716Z" fill="black"/>
</svg>
